<?xml version="1.0" encoding="utf-8"?>
<!-- Generator: Adobe Illustrator 23.0.6, SVG Export Plug-In . SVG Version: 6.00 Build 0)  -->
<svg version="1.1" id="Layer_1" xmlns="http://www.w3.org/2000/svg" xmlns:xlink="http://www.w3.org/1999/xlink" x="0px" y="0px"
	 viewBox="0 0 97 40.2" style="enable-background:new 0 0 97 40.2;" xml:space="preserve">
<style type="text/css">
	.st0{fill:#3968D5;}
	.st1{fill:url(#Path_1934_1_);}
	.st2{fill:#FFFFFF;}
</style>
<g id="logo_blue" transform="translate(-263.473 -330.275)">
	<g id="Group_913" transform="translate(263.473 330.275)">
		<g id="Group_912" transform="translate(0 0)">
			<path id="Path_1929" class="st0" d="M1.7,40.2c-1,0.1-1.4-0.5-1.5-1.9C-0.1,26.2-0.1,14,0.2,1.9c0-1.4,0.5-2,1.5-1.9l12.6,1.1
				c4.8,0.4,7.7,3.6,7.4,8.5c0,1,0,1.5,0,2.4c0,2-0.5,4.4-2.4,5.5c4,0.5,5,4.4,5,7.9c0,1.9,0,2.8,0.1,4.6c0.2,5-2.5,8.5-7.5,8.9
				L1.7,40.2z M8.9,15.7l3.4,0.1c1,0,1.5-0.7,1.5-2.1c0-0.6,0-0.9,0-1.5c0-1.4-0.4-2.1-1.5-2.2L9,9.8C8.9,11.8,8.9,13.7,8.9,15.7
				L8.9,15.7z M9,30.4l5.1-0.2c1,0,1.5-0.8,1.5-2.2c0-0.8,0-1.2,0-2c0-1.4-0.5-2-1.5-2L8.9,24C8.9,26.1,8.9,28.3,9,30.4L9,30.4z"/>
			<path id="Path_1930" class="st0" d="M28.7,37.9c-0.6,0-0.8-0.2-0.9-1c-0.2-6.3-0.3-12.5-0.2-18.8c0-0.7,0.3-1,0.8-1l10.8,0.2
				c0.6,0,0.8,0.3,0.8,1c0,1.3,0,1.9,0,3.2c0,0.7-0.3,1-0.8,1l-6.4,0.1c0,0.9,0,1.3,0,2.2l4.5-0.1c0.6,0,0.8,0.3,0.8,1
				c0,1.2,0,1.8,0,2.9c0,0.7-0.2,1-0.8,1l-4.5,0.2c0,1,0,1.5,0,2.4l6.4-0.4c0.6,0,0.8,0.2,0.9,0.9c0,1.3,0,1.9,0.1,3.2
				c0,0.7-0.2,1-0.8,1.1L28.7,37.9z"/>
			<path id="Path_1931" class="st0" d="M43.8,36.6c-0.6,0-0.8-0.2-0.9-0.9c-0.2-5.8-0.2-11.6-0.2-17.4c0-0.7,0.3-1,0.8-1l10.8,0.2
				c0.6,0,0.8,0.3,0.8,0.9c0,1.2,0,1.8,0,2.9c0,0.6-0.3,0.9-0.8,0.9l-6.4,0.1c0,0.8,0,1.2,0,2l4.5-0.1c0.6,0,0.8,0.3,0.8,0.9
				c0,1.1,0,1.6,0,2.7c0,0.6-0.2,0.9-0.8,1L48,29c0,0.9,0,1.3,0,2.2l6.4-0.4c0.6,0,0.8,0.2,0.9,0.9c0,1.2,0,1.8,0.1,2.9
				c0,0.6-0.2,0.9-0.8,1L43.8,36.6z"/>
			<path id="Path_1932" class="st0" d="M60.7,35.1c-1,0.1-1.4-0.3-1.5-1.4c-0.2-9.1-0.2-18.1,0-27.2c0-1,0.5-1.5,1.5-1.4l12.1,1.1
				c4.9,0.4,9.2,2.5,9.2,7.9c0,1.9,0,2.8,0,4.7c0,5.4-4.5,7.3-9.3,7.5l-4.6,0.2c0,2.2,0.1,4.4,0.1,6.6c0.1,0.7-0.3,1.4-1,1.5
				c-0.1,0-0.2,0-0.3,0L60.7,35.1z M68,19.2l3.6,0c1.5,0,1.9-0.9,1.9-1.9c0-0.8,0-1.2,0-2c0.2-0.9-0.4-1.8-1.4-1.9
				c-0.2,0-0.3,0-0.5,0L68,13.2C68,15.2,68,17.2,68,19.2z"/>
			<path id="Path_1933" class="st0" d="M88.7,23.5c-1,0-1.4-0.4-1.5-1.2c-0.2-4.5-0.4-9.1-0.4-13.6c0-0.9,0.4-1.2,1.4-1.2l7.6,0.7
				c1,0.1,1.4,0.5,1.3,1.3c-0.3,4.2-0.5,8.5-0.7,12.7c0,0.8-0.5,1.2-1.5,1.2L88.7,23.5z M88.3,32.7c-1,0.1-1.4-0.3-1.5-1.1
				c-0.1-1.9-0.1-2.8-0.1-4.6c0-0.9,0.4-1.3,1.4-1.3l7.3-0.3c1,0,1.4,0.3,1.4,1.1c0,1.7,0,2.6,0.1,4.3c0,0.8-0.4,1.2-1.4,1.3
				L88.3,32.7z"/>
		</g>
	</g>
	
		<linearGradient id="Path_1934_1_" gradientUnits="userSpaceOnUse" x1="-74.9114" y1="618.7553" x2="-73.9114" y2="618.7553" gradientTransform="matrix(27.816 0 0 -8.712 2374.3345 5729.7339)">
		<stop  offset="0" style="stop-color:#EB3011"/>
		<stop  offset="1" style="stop-color:#EB9D10"/>
	</linearGradient>
	<path id="Path_1934" class="st1" d="M318.4,343.5l-27.8-0.1l0.1-8.6l27.6,1.9L318.4,343.5z"/>
	<g id="Group_915" transform="translate(294.127 336.034)">
		<g id="Group_914" transform="translate(0)">
			<path id="Path_1935" class="st2" d="M0,4.6c0-0.2,0-0.3,0.1-0.5c0-0.1,0.1-0.3,0.2-0.4c0.1-0.1,0.2-0.3,0.3-0.4
				C0.7,3.2,0.8,3.1,1,3C0.9,2.8,0.8,2.7,0.8,2.6C0.7,2.5,0.6,2.4,0.6,2.2c0-0.1-0.1-0.2-0.1-0.3c0-0.1,0-0.2,0-0.3
				c0-0.2,0-0.4,0.1-0.6c0.1-0.2,0.2-0.3,0.3-0.5C1,0.5,1.2,0.4,1.4,0.3c0.2-0.1,0.5-0.1,0.8-0.1c0.2,0,0.5,0.1,0.7,0.1
				C3,0.4,3.2,0.5,3.3,0.7C3.5,0.8,3.6,0.9,3.6,1c0.1,0.2,0.1,0.3,0.1,0.5c0,0.2,0,0.3-0.1,0.5C3.6,2.1,3.5,2.3,3.4,2.4
				C3.3,2.5,3.1,2.6,3,2.8C2.8,2.9,2.6,3,2.4,3.1c0.1,0.1,0.1,0.2,0.2,0.3s0.2,0.2,0.3,0.3C3,3.8,3.1,3.9,3.2,4
				C3.3,4,3.4,4.1,3.5,4.2c0-0.1,0.1-0.1,0.1-0.2c0-0.1,0.1-0.2,0.1-0.2c0-0.1,0-0.2,0-0.2c0-0.1,0-0.2,0-0.2c0-0.1,0-0.1,0-0.1
				c0,0,0-0.1,0-0.1c0,0,0,0,0.1-0.1c0,0,0.1,0,0.1,0C4,3,4.1,3,4.1,3c0.1,0,0.2,0,0.2,0c0,0,0.1,0,0.1,0c0,0,0.1,0,0.1,0.1
				c0,0,0,0.1,0,0.1v0.1c0,0.1,0,0.3,0,0.4c0,0.1,0,0.3-0.1,0.4c0,0.1-0.1,0.2-0.1,0.4c0,0.1-0.1,0.2-0.2,0.3C4.3,4.9,4.4,4.9,4.4,5
				C4.5,5,4.6,5,4.6,5.1c0,0,0.1,0,0.1,0.1c0,0,0.1,0,0.1,0h0.1c0,0,0,0,0.1,0c0,0,0,0.1,0,0.1c0,0.1,0,0.1,0,0.2c0,0.1,0,0.2,0,0.2
				c0,0,0,0.1,0,0.1c0,0,0,0.1,0,0.1c0,0-0.1,0-0.1,0.1C4.8,6,4.7,6,4.6,6C4.6,6,4.5,6,4.5,6c-0.1,0-0.1,0-0.2-0.1
				C4.1,5.9,4,5.8,4,5.7C3.9,5.7,3.7,5.6,3.6,5.5C3.5,5.6,3.3,5.7,3.2,5.8C3.1,5.8,3,5.9,2.8,6C2.7,6,2.5,6.1,2.4,6.1
				c-0.2,0-0.3,0.1-0.5,0.1c-0.2,0-0.3,0-0.5,0C1.3,6.1,1.1,6.1,1,6C0.8,6,0.7,5.9,0.6,5.8C0.5,5.8,0.4,5.7,0.3,5.5
				C0.2,5.4,0.1,5.3,0.1,5.1C0,4.9,0,4.8,0,4.6z M1,4.5c0,0.1,0,0.2,0.1,0.3c0,0.1,0.1,0.2,0.2,0.3c0.1,0.1,0.2,0.1,0.3,0.2
				c0.1,0,0.3,0.1,0.4,0c0.1,0,0.2,0,0.2,0c0.1,0,0.2,0,0.2-0.1c0.1,0,0.1-0.1,0.2-0.1C2.7,5,2.8,5,2.8,5C2.7,4.9,2.6,4.8,2.5,4.6
				C2.4,4.5,2.2,4.4,2.1,4.3C2,4.2,1.9,4.1,1.8,4C1.7,3.8,1.6,3.7,1.5,3.6C1.5,3.7,1.4,3.8,1.3,3.8C1.3,3.9,1.2,4,1.2,4
				c0,0.1-0.1,0.1-0.1,0.2C1.1,4.3,1,4.4,1,4.5L1,4.5z M1.5,1.6c0,0.1,0,0.1,0,0.2c0,0.1,0,0.1,0.1,0.2c0,0.1,0.1,0.2,0.1,0.2
				c0,0.1,0.1,0.2,0.2,0.3C2,2.4,2.2,2.3,2.3,2.2C2.3,2.2,2.4,2.1,2.5,2C2.6,2,2.6,1.9,2.6,1.8c0-0.1,0-0.1,0-0.2c0-0.1,0-0.1,0-0.2
				c0-0.1-0.1-0.1-0.1-0.2c-0.1,0-0.1-0.1-0.2-0.1c-0.1,0-0.2,0-0.3-0.1c-0.1,0-0.2,0-0.3,0c-0.1,0-0.1,0.1-0.2,0.1
				c0,0-0.1,0.1-0.1,0.2C1.5,1.5,1.5,1.5,1.5,1.6L1.5,1.6z"/>
			<path id="Path_1936" class="st2" d="M8.9,4.2c0,0.2,0,0.4-0.1,0.6C8.7,4.9,8.6,5.1,8.5,5.2C8.3,5.4,8.2,5.5,8,5.5
				C7.8,5.6,7.5,5.7,7.3,5.7c0,0.3,0,0.5-0.1,0.8c0,0,0,0,0,0.1c0,0,0,0,0,0c0,0-0.1,0-0.1,0c-0.1,0-0.1,0-0.2,0c-0.1,0-0.1,0-0.2,0
				c0,0-0.1,0-0.1,0c0,0,0,0-0.1-0.1c0,0,0-0.1,0-0.1c0-0.3,0-0.5,0.1-0.8c-0.1,0-0.2,0-0.3,0c-0.1,0-0.2,0-0.3-0.1
				c-0.1,0-0.1,0-0.2-0.1c0,0-0.1-0.1-0.1-0.1c0,0-0.1-0.1-0.1-0.1c0-0.1,0-0.2,0-0.3c0-0.1,0-0.2,0-0.2c0,0,0-0.1,0-0.1
				c0,0,0-0.1,0-0.1c0,0,0,0,0.1,0c0.1,0,0.1,0,0.1,0.1C6,4.8,6,4.8,6.1,4.8c0.1,0,0.2,0.1,0.4,0.1C6.7,5,6.8,5,7,5
				c0.2,0,0.5-0.1,0.7-0.2c0.1-0.1,0.2-0.3,0.2-0.4c0-0.1,0-0.2-0.1-0.3C7.7,4,7.6,3.9,7.5,3.9C7.4,3.8,7.3,3.8,7.2,3.7
				C7,3.7,6.9,3.6,6.8,3.6C6.6,3.5,6.5,3.5,6.4,3.4C6.2,3.3,6.1,3.2,6,3.1C5.9,3,5.8,2.9,5.8,2.7C5.7,2.5,5.7,2.4,5.7,2.2
				c0-0.2,0-0.4,0.1-0.5C5.8,1.5,5.9,1.3,6,1.2C6.2,1.1,6.3,1,6.5,1c0.2-0.1,0.4-0.1,0.6-0.1c0-0.3,0.1-0.5,0.1-0.8c0,0,0,0,0,0
				c0,0,0,0,0.1,0c0,0,0.1,0,0.1,0c0.1,0,0.1,0,0.2,0c0.1,0,0.1,0,0.2,0c0,0,0.1,0,0.1,0c0,0,0,0,0.1,0.1c0,0,0,0,0,0.1
				c0,0.3-0.1,0.4-0.1,0.7C7.9,0.9,8,1,8,1C8.1,1,8.2,1,8.3,1c0.1,0,0.1,0.1,0.2,0.1c0,0,0.1,0,0.1,0.1c0,0,0,0,0,0.1
				c0,0,0,0.1,0,0.1c0,0,0,0.1,0,0.1c0,0,0,0.1,0,0.1c0,0.1,0,0.1,0,0.2c0,0,0,0.1,0,0.1c0,0,0,0,0,0c0,0,0,0,0,0
				c-0.1,0-0.1,0-0.1-0.1c-0.1,0-0.1-0.1-0.2-0.1c-0.1,0-0.2-0.1-0.3-0.1c-0.1,0-0.3-0.1-0.4-0.1c-0.1,0-0.2,0-0.3,0
				C7,1.7,6.9,1.7,6.9,1.7c-0.1,0-0.1,0.1-0.1,0.2c0,0.1,0,0.1,0,0.2c0,0.1,0,0.2,0.1,0.3C6.8,2.5,6.9,2.6,7,2.6
				c0.1,0.1,0.2,0.1,0.4,0.2c0.1,0,0.3,0.1,0.4,0.2C7.9,3,8.1,3.1,8.2,3.1c0.1,0.1,0.3,0.1,0.4,0.2c0.1,0.1,0.2,0.2,0.3,0.4
				C8.9,3.9,8.9,4,8.9,4.2z"/>
			<path id="Path_1937" class="st2" d="M11.3,5c0,0.1,0,0.2,0,0.2c0,0.1,0,0.1-0.1,0.2c0,0-0.1,0.1-0.2,0.1c-0.1,0-0.2,0-0.3,0
				c-0.1,0-0.2,0-0.3,0c-0.1,0-0.1,0-0.2-0.1c0,0-0.1-0.1-0.1-0.2c0-0.1,0-0.2,0-0.2c0-0.1,0-0.2,0-0.2c0-0.1,0-0.1,0.1-0.2
				c0,0,0.1-0.1,0.2-0.1c0.1,0,0.2,0,0.3,0c0.1,0,0.2,0,0.3,0c0.1,0,0.1,0,0.2,0.1c0,0,0.1,0.1,0.1,0.2C11.3,4.9,11.3,5,11.3,5z
				 M11.1,4.1C11.1,4.1,11.1,4.1,11.1,4.1c0,0.1-0.1,0.1-0.1,0.1c0,0-0.1,0-0.1,0c-0.1,0-0.3,0-0.4,0c0,0-0.1,0-0.1,0
				c0,0-0.1,0-0.1,0c0,0,0,0,0-0.1c0-1.3-0.1-1.9-0.1-3.2c0,0,0-0.1,0-0.1c0,0,0.1,0,0.1-0.1c0.1,0,0.1,0,0.2,0c0.1,0,0.2,0,0.3,0
				c0.1,0,0.2,0,0.3,0c0.1,0,0.1,0,0.2,0c0,0,0.1,0,0.1,0.1c0,0,0,0.1,0,0.1C11.2,2.2,11.2,2.8,11.1,4.1L11.1,4.1z"/>
			<path id="Path_1938" class="st2" d="M15.7,2.6c0,0,0,0.1,0,0.1c0,0,0,0.1,0,0.1c0,0,0,0,0,0c0,0,0,0-0.1,0l-0.4,0
				C15.1,3.2,15,3.4,15,3.7h0.4c0,0,0.1,0,0.1,0.1c0,0.1,0,0.1,0,0.2c0,0,0,0.1,0,0.1c0,0,0,0.1,0,0.1c0,0,0,0,0,0c0,0,0,0-0.1,0
				l-0.5,0c-0.1,0.4-0.1,0.6-0.1,1c0,0,0,0,0,0c0,0,0,0-0.1,0c0,0-0.1,0-0.1,0c0,0-0.1,0-0.2,0s-0.1,0-0.2,0c0,0-0.1,0-0.1,0
				c0,0,0,0-0.1,0c0,0,0,0,0,0c0.1-0.4,0.1-0.6,0.1-1l-0.9,0c-0.1,0.4-0.1,0.6-0.1,1c0,0,0,0,0,0c0,0,0,0-0.1,0c0,0-0.1,0-0.1,0
				c0,0-0.1,0-0.2,0s-0.1,0-0.2,0c0,0-0.1,0-0.1,0c0,0,0,0-0.1,0c0,0,0,0,0,0c0-0.4,0.1-0.6,0.1-1l-0.4,0c0,0-0.1,0-0.1-0.1
				c0-0.1,0-0.1,0-0.2c0,0,0-0.1,0-0.1c0,0,0-0.1,0-0.1c0,0,0,0,0,0c0,0,0,0,0.1,0l0.4,0c0.1-0.4,0.1-0.6,0.1-0.9l-0.4,0
				c0,0-0.1,0-0.1-0.1c0-0.1,0-0.1,0-0.2c0-0.1,0-0.2,0-0.2c0,0,0.1-0.1,0.1-0.1l0.5,0c0.1-0.4,0.1-0.6,0.1-0.9c0,0,0,0,0,0
				c0,0,0,0,0.1,0c0,0,0.1,0,0.1,0c0.1,0,0.1,0,0.2,0c0.1,0,0.1,0,0.2,0c0,0,0.1,0,0.1,0c0,0,0,0,0,0c0,0,0,0,0,0
				c-0.1,0.4-0.1,0.5-0.2,0.9l0.9,0c0.1-0.4,0.1-0.5,0.1-0.9c0,0,0,0,0,0c0,0,0,0,0.1,0c0,0,0.1,0,0.1,0c0.1,0,0.1,0,0.2,0
				s0.1,0,0.2,0c0,0,0.1,0,0.1,0c0,0,0,0,0,0c0,0,0,0,0,0c-0.1,0.3-0.1,0.5-0.1,0.9l0.4,0c0,0,0.1,0,0.1,0.1
				C15.7,2.5,15.7,2.5,15.7,2.6z M13.5,2.8c-0.1,0.4-0.1,0.5-0.1,0.9l0.9,0c0.1-0.4,0.1-0.5,0.1-0.9L13.5,2.8z"/>
			<path id="Path_1939" class="st2" d="M18.3,2.4c0,0.1,0,0.3-0.1,0.4c0,0.1-0.1,0.2-0.2,0.3c-0.1,0.1-0.2,0.2-0.4,0.2
				c-0.2,0-0.4,0.1-0.5,0.1c-0.2,0-0.4,0-0.5-0.1c-0.1,0-0.3-0.1-0.4-0.2c-0.1-0.1-0.2-0.2-0.2-0.3C16,2.6,16,2.5,16,2.4
				c0-0.1,0-0.3,0.1-0.4c0-0.1,0.1-0.2,0.2-0.3c0.1-0.1,0.2-0.2,0.4-0.2c0.2,0,0.4-0.1,0.5,0c0.2,0,0.4,0,0.6,0.1
				c0.1,0,0.2,0.1,0.3,0.2c0.1,0.1,0.1,0.2,0.2,0.3C18.3,2.2,18.3,2.3,18.3,2.4z M17.3,5.1c0,0-0.1,0.1-0.2,0.1c0,0-0.1,0-0.1,0
				c-0.1,0-0.1,0-0.2,0c-0.1,0-0.1,0-0.2,0c0,0-0.1,0-0.1,0c0,0,0,0,0-0.1c0,0,0-0.1,0-0.1c1.1-1.2,2.3-2.4,3.6-3.4c0,0,0,0,0.1,0
				c0,0,0.1,0,0.1,0c0,0,0.1,0,0.1,0c0.1,0,0.1,0,0.2,0c0.1,0,0.1,0,0.2,0c0,0,0.1,0,0.1,0c0,0,0,0,0,0c0,0,0,0,0,0.1
				C19.6,2.8,18.4,3.9,17.3,5.1L17.3,5.1z M17.6,2.4c0-0.1,0-0.2,0-0.3c0-0.1,0-0.1-0.1-0.2c0,0-0.1-0.1-0.1-0.1c-0.1,0-0.1,0-0.2,0
				c-0.1,0-0.1,0-0.2,0c0,0-0.1,0-0.1,0.1c0,0.1-0.1,0.1-0.1,0.2c0,0.1,0,0.2,0,0.3c0,0.1,0,0.2,0,0.3c0,0.1,0,0.1,0.1,0.2
				c0,0,0.1,0.1,0.1,0.1c0.1,0,0.1,0,0.2,0c0.1,0,0.1,0,0.2,0c0,0,0.1-0.1,0.1-0.1c0-0.1,0.1-0.1,0.1-0.2
				C17.6,2.6,17.6,2.5,17.6,2.4L17.6,2.4z M21.4,4.1c0,0.1,0,0.2-0.1,0.3c0,0.1-0.1,0.2-0.2,0.3c-0.1,0.1-0.2,0.2-0.4,0.2
				C20.6,4.9,20.4,5,20.2,5c-0.2,0-0.4,0-0.5,0c-0.1,0-0.2-0.1-0.4-0.2c-0.1-0.1-0.2-0.2-0.2-0.3c0-0.1-0.1-0.2-0.1-0.4
				c0-0.1,0-0.2,0.1-0.4c0-0.1,0.1-0.2,0.2-0.3c0.1-0.1,0.2-0.1,0.4-0.2c0.2,0,0.4-0.1,0.5-0.1c0.2,0,0.4,0,0.6,0.1
				c0.1,0,0.2,0.1,0.4,0.2c0.1,0.1,0.1,0.2,0.2,0.3C21.3,3.9,21.4,4,21.4,4.1L21.4,4.1z M20.6,4.1c0-0.1,0-0.2,0-0.2
				c0-0.1,0-0.1-0.1-0.2c0,0-0.1-0.1-0.1-0.1c-0.1,0-0.1,0-0.2,0c-0.1,0-0.1,0-0.2,0c0,0-0.1,0-0.1,0.1c0,0-0.1,0.1-0.1,0.2
				c0,0.1,0,0.2,0,0.2c0,0.1,0,0.2,0,0.3c0,0.1,0,0.1,0.1,0.2c0,0,0.1,0.1,0.1,0.1c0.1,0,0.1,0,0.2,0c0.1,0,0.1,0,0.2,0
				c0,0,0.1-0.1,0.1-0.1c0,0,0.1-0.1,0.1-0.2C20.6,4.3,20.6,4.2,20.6,4.1L20.6,4.1z"/>
		</g>
	</g>
</g>
</svg>
